<?xml version="1.0" standalone="no"?>
<!DOCTYPE svg PUBLIC "-//W3C//DTD SVG 1.1//EN" "http://www.w3.org/Graphics/SVG/1.1/DTD/svg11.dtd">
<svg version="1.1" width="1200" height="2134" onload="init(evt)" viewBox="0 0 1200 2134" xmlns="http://www.w3.org/2000/svg" xmlns:xlink="http://www.w3.org/1999/xlink">
<!-- Flame graph stack visualization. See https://github.com/brendangregg/FlameGraph for latest version, and http://www.brendangregg.com/flamegraphs.html for examples. -->
<!-- NOTES:  -->
<defs>
	<linearGradient id="background" y1="0" y2="1" x1="0" x2="0" >
		<stop stop-color="#eeeeee" offset="5%" />
		<stop stop-color="#eeeeb0" offset="95%" />
	</linearGradient>
</defs>
<style type="text/css">
	text { font-family:Verdana; font-size:12px; fill:rgb(0,0,0); }
	#search, #ignorecase { opacity:0.1; cursor:pointer; }
	#search:hover, #search.show, #ignorecase:hover, #ignorecase.show { opacity:1; }
	#subtitle { text-anchor:middle; font-color:rgb(160,160,160); }
	#title { text-anchor:middle; font-size:17px}
	#unzoom { cursor:pointer; }
	#frames > *:hover { stroke:black; stroke-width:0.5; cursor:pointer; }
	.hide { display:none; }
	.parent { opacity:0.5; }
</style>
<script type="text/ecmascript">
<![CDATA[
	"use strict";
	var details, searchbtn, unzoombtn, matchedtxt, svg, searching, currentSearchTerm, ignorecase, ignorecaseBtn;
	function init(evt) {
		details = document.getElementById("details").firstChild;
		searchbtn = document.getElementById("search");
		ignorecaseBtn = document.getElementById("ignorecase");
		unzoombtn = document.getElementById("unzoom");
		matchedtxt = document.getElementById("matched");
		svg = document.getElementsByTagName("svg")[0];
		searching = 0;
		currentSearchTerm = null;

		// use GET parameters to restore a flamegraphs state.
		var params = get_params();
		if (params.x && params.y)
			zoom(find_group(document.querySelector('[x="' + params.x + '"][y="' + params.y + '"]')));
                if (params.s) search(params.s);
	}

	// event listeners
	window.addEventListener("click", function(e) {
		var target = find_group(e.target);
		if (target) {
			if (target.nodeName == "a") {
				if (e.ctrlKey === false) return;
				e.preventDefault();
			}
			if (target.classList.contains("parent")) unzoom(true);
			zoom(target);
			if (!document.querySelector('.parent')) {
				// we have basically done a clearzoom so clear the url
				var params = get_params();
				if (params.x) delete params.x;
				if (params.y) delete params.y;
				history.replaceState(null, null, parse_params(params));
				unzoombtn.classList.add("hide");
				return;
			}

			// set parameters for zoom state
			var el = target.querySelector("rect");
			if (el && el.attributes && el.attributes.y && el.attributes._orig_x) {
				var params = get_params()
				params.x = el.attributes._orig_x.value;
				params.y = el.attributes.y.value;
				history.replaceState(null, null, parse_params(params));
			}
		}
		else if (e.target.id == "unzoom") clearzoom();
		else if (e.target.id == "search") search_prompt();
		else if (e.target.id == "ignorecase") toggle_ignorecase();
	}, false)

	// mouse-over for info
	// show
	window.addEventListener("mouseover", function(e) {
		var target = find_group(e.target);
		if (target) details.nodeValue = "Function: " + g_to_text(target);
	}, false)

	// clear
	window.addEventListener("mouseout", function(e) {
		var target = find_group(e.target);
		if (target) details.nodeValue = ' ';
	}, false)

	// ctrl-F for search
	// ctrl-I to toggle case-sensitive search
	window.addEventListener("keydown",function (e) {
		if (e.keyCode === 114 || (e.ctrlKey && e.keyCode === 70)) {
			e.preventDefault();
			search_prompt();
		}
		else if (e.ctrlKey && e.keyCode === 73) {
			e.preventDefault();
			toggle_ignorecase();
		}
	}, false)

	// functions
	function get_params() {
		var params = {};
		var paramsarr = window.location.search.substr(1).split('&');
		for (var i = 0; i < paramsarr.length; ++i) {
			var tmp = paramsarr[i].split("=");
			if (!tmp[0] || !tmp[1]) continue;
			params[tmp[0]]  = decodeURIComponent(tmp[1]);
		}
		return params;
	}
	function parse_params(params) {
		var uri = "?";
		for (var key in params) {
			uri += key + '=' + encodeURIComponent(params[key]) + '&';
		}
		if (uri.slice(-1) == "&")
			uri = uri.substring(0, uri.length - 1);
		if (uri == '?')
			uri = window.location.href.split('?')[0];
		return uri;
	}
	function find_child(node, selector) {
		var children = node.querySelectorAll(selector);
		if (children.length) return children[0];
	}
	function find_group(node) {
		var parent = node.parentElement;
		if (!parent) return;
		if (parent.id == "frames") return node;
		return find_group(parent);
	}
	function orig_save(e, attr, val) {
		if (e.attributes["_orig_" + attr] != undefined) return;
		if (e.attributes[attr] == undefined) return;
		if (val == undefined) val = e.attributes[attr].value;
		e.setAttribute("_orig_" + attr, val);
	}
	function orig_load(e, attr) {
		if (e.attributes["_orig_"+attr] == undefined) return;
		e.attributes[attr].value = e.attributes["_orig_" + attr].value;
		e.removeAttribute("_orig_"+attr);
	}
	function g_to_text(e) {
		var text = find_child(e, "title").firstChild.nodeValue;
		return (text)
	}
	function g_to_func(e) {
		var func = g_to_text(e);
		// if there's any manipulation we want to do to the function
		// name before it's searched, do it here before returning.
		return (func);
	}
	function update_text(e) {
		var r = find_child(e, "rect");
		var t = find_child(e, "text");
		var w = parseFloat(r.attributes.width.value) -3;
		var txt = find_child(e, "title").textContent.replace(/\([^(]*\)$/,"");
		t.attributes.x.value = parseFloat(r.attributes.x.value) + 3;

		// Smaller than this size won't fit anything
		if (w < 2 * 12 * 0.59) {
			t.textContent = "";
			return;
		}

		t.textContent = txt;
		var sl = t.getSubStringLength(0, txt.length);
		// check if only whitespace or if we can fit the entire string into width w
		if (/^ *$/.test(txt) || sl < w)
			return;

		// this isn't perfect, but gives a good starting point
		// and avoids calling getSubStringLength too often
		var start = Math.floor((w/sl) * txt.length);
		for (var x = start; x > 0; x = x-2) {
			if (t.getSubStringLength(0, x + 2) <= w) {
				t.textContent = txt.substring(0, x) + "..";
				return;
			}
		}
		t.textContent = "";
	}

	// zoom
	function zoom_reset(e) {
		if (e.attributes != undefined) {
			orig_load(e, "x");
			orig_load(e, "width");
		}
		if (e.childNodes == undefined) return;
		for (var i = 0, c = e.childNodes; i < c.length; i++) {
			zoom_reset(c[i]);
		}
	}
	function zoom_child(e, x, ratio) {
		if (e.attributes != undefined) {
			if (e.attributes.x != undefined) {
				orig_save(e, "x");
				e.attributes.x.value = (parseFloat(e.attributes.x.value) - x - 10) * ratio + 10;
				if (e.tagName == "text")
					e.attributes.x.value = find_child(e.parentNode, "rect[x]").attributes.x.value + 3;
			}
			if (e.attributes.width != undefined) {
				orig_save(e, "width");
				e.attributes.width.value = parseFloat(e.attributes.width.value) * ratio;
			}
		}

		if (e.childNodes == undefined) return;
		for (var i = 0, c = e.childNodes; i < c.length; i++) {
			zoom_child(c[i], x - 10, ratio);
		}
	}
	function zoom_parent(e) {
		if (e.attributes) {
			if (e.attributes.x != undefined) {
				orig_save(e, "x");
				e.attributes.x.value = 10;
			}
			if (e.attributes.width != undefined) {
				orig_save(e, "width");
				e.attributes.width.value = parseInt(svg.width.baseVal.value) - (10 * 2);
			}
		}
		if (e.childNodes == undefined) return;
		for (var i = 0, c = e.childNodes; i < c.length; i++) {
			zoom_parent(c[i]);
		}
	}
	function zoom(node) {
		var attr = find_child(node, "rect").attributes;
		var width = parseFloat(attr.width.value);
		var xmin = parseFloat(attr.x.value);
		var xmax = parseFloat(xmin + width);
		var ymin = parseFloat(attr.y.value);
		var ratio = (svg.width.baseVal.value - 2 * 10) / width;

		// XXX: Workaround for JavaScript float issues (fix me)
		var fudge = 0.0001;

		unzoombtn.classList.remove("hide");

		var el = document.getElementById("frames").children;
		for (var i = 0; i < el.length; i++) {
			var e = el[i];
			var a = find_child(e, "rect").attributes;
			var ex = parseFloat(a.x.value);
			var ew = parseFloat(a.width.value);
			var upstack;
			// Is it an ancestor
			if (0 == 0) {
				upstack = parseFloat(a.y.value) > ymin;
			} else {
				upstack = parseFloat(a.y.value) < ymin;
			}
			if (upstack) {
				// Direct ancestor
				if (ex <= xmin && (ex+ew+fudge) >= xmax) {
					e.classList.add("parent");
					zoom_parent(e);
					update_text(e);
				}
				// not in current path
				else
					e.classList.add("hide");
			}
			// Children maybe
			else {
				// no common path
				if (ex < xmin || ex + fudge >= xmax) {
					e.classList.add("hide");
				}
				else {
					zoom_child(e, xmin, ratio);
					update_text(e);
				}
			}
		}
		search();
	}
	function unzoom(dont_update_text) {
		unzoombtn.classList.add("hide");
		var el = document.getElementById("frames").children;
		for(var i = 0; i < el.length; i++) {
			el[i].classList.remove("parent");
			el[i].classList.remove("hide");
			zoom_reset(el[i]);
			if(!dont_update_text) update_text(el[i]);
		}
		search();
	}
	function clearzoom() {
		unzoom();

		// remove zoom state
		var params = get_params();
		if (params.x) delete params.x;
		if (params.y) delete params.y;
		history.replaceState(null, null, parse_params(params));
	}

	// search
	function toggle_ignorecase() {
		ignorecase = !ignorecase;
		if (ignorecase) {
			ignorecaseBtn.classList.add("show");
		} else {
			ignorecaseBtn.classList.remove("show");
		}
		reset_search();
		search();
	}
	function reset_search() {
		var el = document.querySelectorAll("#frames rect");
		for (var i = 0; i < el.length; i++) {
			orig_load(el[i], "fill")
		}
		var params = get_params();
		delete params.s;
		history.replaceState(null, null, parse_params(params));
	}
	function search_prompt() {
		if (!searching) {
			var term = prompt("Enter a search term (regexp " +
			    "allowed, eg: ^ext4_)"
			    + (ignorecase ? ", ignoring case" : "")
			    + "\nPress Ctrl-i to toggle case sensitivity", "");
			if (term != null) search(term);
		} else {
			reset_search();
			searching = 0;
			currentSearchTerm = null;
			searchbtn.classList.remove("show");
			searchbtn.firstChild.nodeValue = "Search"
			matchedtxt.classList.add("hide");
			matchedtxt.firstChild.nodeValue = ""
		}
	}
	function search(term) {
		if (term) currentSearchTerm = term;

		var re = new RegExp(currentSearchTerm, ignorecase ? 'i' : '');
		var el = document.getElementById("frames").children;
		var matches = new Object();
		var maxwidth = 0;
		for (var i = 0; i < el.length; i++) {
			var e = el[i];
			var func = g_to_func(e);
			var rect = find_child(e, "rect");
			if (func == null || rect == null)
				continue;

			// Save max width. Only works as we have a root frame
			var w = parseFloat(rect.attributes.width.value);
			if (w > maxwidth)
				maxwidth = w;

			if (func.match(re)) {
				// highlight
				var x = parseFloat(rect.attributes.x.value);
				orig_save(rect, "fill");
				rect.attributes.fill.value = "rgb(230,0,230)";

				// remember matches
				if (matches[x] == undefined) {
					matches[x] = w;
				} else {
					if (w > matches[x]) {
						// overwrite with parent
						matches[x] = w;
					}
				}
				searching = 1;
			}
		}
		if (!searching)
			return;
		var params = get_params();
		params.s = currentSearchTerm;
		history.replaceState(null, null, parse_params(params));

		searchbtn.classList.add("show");
		searchbtn.firstChild.nodeValue = "Reset Search";

		// calculate percent matched, excluding vertical overlap
		var count = 0;
		var lastx = -1;
		var lastw = 0;
		var keys = Array();
		for (k in matches) {
			if (matches.hasOwnProperty(k))
				keys.push(k);
		}
		// sort the matched frames by their x location
		// ascending, then width descending
		keys.sort(function(a, b){
			return a - b;
		});
		// Step through frames saving only the biggest bottom-up frames
		// thanks to the sort order. This relies on the tree property
		// where children are always smaller than their parents.
		var fudge = 0.0001;	// JavaScript floating point
		for (var k in keys) {
			var x = parseFloat(keys[k]);
			var w = matches[keys[k]];
			if (x >= lastx + lastw - fudge) {
				count += w;
				lastx = x;
				lastw = w;
			}
		}
		// display matched percent
		matchedtxt.classList.remove("hide");
		var pct = 100 * count / maxwidth;
		if (pct != 100) pct = pct.toFixed(1)
		matchedtxt.firstChild.nodeValue = "Matched: " + pct + "%";
	}
]]>
</script>
<rect x="0.0" y="0" width="1200.0" height="2134.0" fill="url(#background)"  />
<text id="title" x="600.00" y="24" >Flame Graph</text>
<text id="details" x="10.00" y="2117" > </text>
<text id="unzoom" x="10.00" y="24" class="hide">Reset Zoom</text>
<text id="search" x="1090.00" y="24" >Search</text>
<text id="ignorecase" x="1174.00" y="24" >ic</text>
<text id="matched" x="1090.00" y="2117" > </text>
<g id="frames">
<g >
<title>[unknown] (715,783 samples, 0.01%)</title><rect x="11.4" y="2021" width="0.2" height="15.0" fill="rgb(210,24,5)" rx="2" ry="2" />
<text  x="14.43" y="2031.5" ></text>
</g>
<g >
<title>mkl_blas_avx512_xdtrsm (784,702 samples, 0.01%)</title><rect x="241.7" y="2053" width="0.1" height="15.0" fill="rgb(229,111,26)" rx="2" ry="2" />
<text  x="244.67" y="2063.5" ></text>
</g>
<g >
<title>[unknown] (103,462,683 samples, 1.70%)</title><rect x="11.8" y="293" width="20.0" height="15.0" fill="rgb(210,24,5)" rx="2" ry="2" />
<text  x="14.76" y="303.5" ></text>
</g>
<g >
<title>[unknown] (103,462,683 samples, 1.70%)</title><rect x="11.8" y="981" width="20.0" height="15.0" fill="rgb(210,24,5)" rx="2" ry="2" />
<text  x="14.76" y="991.5" ></text>
</g>
<g >
<title>dgesv (6,102,391,334 samples, 100.00%)</title><rect x="10.0" y="2069" width="1180.0" height="15.0" fill="rgb(244,182,43)" rx="2" ry="2" />
<text  x="13.00" y="2079.5" >dgesv</text>
</g>
<g >
<title>mkl_serv_get_fast_mm_status (784,702 samples, 0.01%)</title><rect x="241.7" y="2021" width="0.1" height="15.0" fill="rgb(238,151,36)" rx="2" ry="2" />
<text  x="244.67" y="2031.5" ></text>
</g>
<g >
<title>[unknown] (103,462,683 samples, 1.70%)</title><rect x="11.8" y="597" width="20.0" height="15.0" fill="rgb(210,24,5)" rx="2" ry="2" />
<text  x="14.76" y="607.5" ></text>
</g>
<g >
<title>[unknown] (103,462,683 samples, 1.70%)</title><rect x="11.8" y="901" width="20.0" height="15.0" fill="rgb(210,24,5)" rx="2" ry="2" />
<text  x="14.76" y="911.5" ></text>
</g>
<g >
<title>[unknown] (103,462,683 samples, 1.70%)</title><rect x="11.8" y="1365" width="20.0" height="15.0" fill="rgb(210,24,5)" rx="2" ry="2" />
<text  x="14.76" y="1375.5" ></text>
</g>
<g >
<title>[unknown] (103,462,683 samples, 1.70%)</title><rect x="11.8" y="1669" width="20.0" height="15.0" fill="rgb(210,24,5)" rx="2" ry="2" />
<text  x="14.76" y="1679.5" ></text>
</g>
<g >
<title>[unknown] (103,462,683 samples, 1.70%)</title><rect x="11.8" y="1925" width="20.0" height="15.0" fill="rgb(210,24,5)" rx="2" ry="2" />
<text  x="14.76" y="1935.5" ></text>
</g>
<g >
<title>[unknown] (8,986,888 samples, 0.15%)</title><rect x="227.6" y="2037" width="1.8" height="15.0" fill="rgb(210,24,5)" rx="2" ry="2" />
<text  x="230.64" y="2047.5" ></text>
</g>
<g >
<title>_dl_sysdep_start (2,198,381 samples, 0.04%)</title><rect x="235.6" y="2053" width="0.4" height="15.0" fill="rgb(234,137,32)" rx="2" ry="2" />
<text  x="238.62" y="2063.5" ></text>
</g>
<g >
<title>[unknown] (103,462,683 samples, 1.70%)</title><rect x="11.8" y="917" width="20.0" height="15.0" fill="rgb(210,24,5)" rx="2" ry="2" />
<text  x="14.76" y="927.5" ></text>
</g>
<g >
<title>mkl_blas_avx512_dgemv_n_intrinsics (8,239,431 samples, 0.14%)</title><rect x="55.5" y="2021" width="1.6" height="15.0" fill="rgb(247,197,47)" rx="2" ry="2" />
<text  x="58.48" y="2031.5" ></text>
</g>
<g >
<title>[unknown] (103,462,683 samples, 1.70%)</title><rect x="11.8" y="389" width="20.0" height="15.0" fill="rgb(210,24,5)" rx="2" ry="2" />
<text  x="14.76" y="399.5" ></text>
</g>
<g >
<title>[unknown] (103,462,683 samples, 1.70%)</title><rect x="11.8" y="965" width="20.0" height="15.0" fill="rgb(210,24,5)" rx="2" ry="2" />
<text  x="14.76" y="975.5" ></text>
</g>
<g >
<title>[unknown] (103,462,683 samples, 1.70%)</title><rect x="11.8" y="1253" width="20.0" height="15.0" fill="rgb(210,24,5)" rx="2" ry="2" />
<text  x="14.76" y="1263.5" ></text>
</g>
<g >
<title>[unknown] (103,462,683 samples, 1.70%)</title><rect x="11.8" y="1781" width="20.0" height="15.0" fill="rgb(210,24,5)" rx="2" ry="2" />
<text  x="14.76" y="1791.5" ></text>
</g>
<g >
<title>[unknown] (103,462,683 samples, 1.70%)</title><rect x="11.8" y="1429" width="20.0" height="15.0" fill="rgb(210,24,5)" rx="2" ry="2" />
<text  x="14.76" y="1439.5" ></text>
</g>
<g >
<title>[unknown] (103,462,683 samples, 1.70%)</title><rect x="11.8" y="1237" width="20.0" height="15.0" fill="rgb(210,24,5)" rx="2" ry="2" />
<text  x="14.76" y="1247.5" ></text>
</g>
<g >
<title>[unknown] (1,115,076,436 samples, 18.27%)</title><rect x="11.4" y="2053" width="215.6" height="15.0" fill="rgb(210,24,5)" rx="2" ry="2" />
<text  x="14.43" y="2063.5" >[unknown]</text>
</g>
<g >
<title>_INTERNAL01e60a8a::__kmp_wait_template&lt;kmp_flag_64&lt;false, true&gt;, true, false, true&gt; (1,446,901 samples, 0.02%)</title><rect x="227.0" y="2053" width="0.3" height="15.0" fill="rgb(228,108,25)" rx="2" ry="2" />
<text  x="230.05" y="2063.5" ></text>
</g>
<g >
<title>[unknown] (103,462,683 samples, 1.70%)</title><rect x="11.8" y="1589" width="20.0" height="15.0" fill="rgb(210,24,5)" rx="2" ry="2" />
<text  x="14.76" y="1599.5" ></text>
</g>
<g >
<title>[unknown] (103,462,683 samples, 1.70%)</title><rect x="11.8" y="53" width="20.0" height="15.0" fill="rgb(210,24,5)" rx="2" ry="2" />
<text  x="14.76" y="63.5" ></text>
</g>
<g >
<title>[unknown] (103,462,683 samples, 1.70%)</title><rect x="11.8" y="1381" width="20.0" height="15.0" fill="rgb(210,24,5)" rx="2" ry="2" />
<text  x="14.76" y="1391.5" ></text>
</g>
<g >
<title>[unknown] (103,462,683 samples, 1.70%)</title><rect x="11.8" y="197" width="20.0" height="15.0" fill="rgb(210,24,5)" rx="2" ry="2" />
<text  x="14.76" y="207.5" ></text>
</g>
<g >
<title>[unknown] (103,462,683 samples, 1.70%)</title><rect x="11.8" y="581" width="20.0" height="15.0" fill="rgb(210,24,5)" rx="2" ry="2" />
<text  x="14.76" y="591.5" ></text>
</g>
<g >
<title>[unknown] (103,462,683 samples, 1.70%)</title><rect x="11.8" y="1637" width="20.0" height="15.0" fill="rgb(210,24,5)" rx="2" ry="2" />
<text  x="14.76" y="1647.5" ></text>
</g>
<g >
<title>[unknown] (103,462,683 samples, 1.70%)</title><rect x="11.8" y="789" width="20.0" height="15.0" fill="rgb(210,24,5)" rx="2" ry="2" />
<text  x="14.76" y="799.5" ></text>
</g>
<g >
<title>[unknown] (103,462,683 samples, 1.70%)</title><rect x="11.8" y="805" width="20.0" height="15.0" fill="rgb(210,24,5)" rx="2" ry="2" />
<text  x="14.76" y="815.5" ></text>
</g>
<g >
<title>[unknown] (103,462,683 samples, 1.70%)</title><rect x="11.8" y="1093" width="20.0" height="15.0" fill="rgb(210,24,5)" rx="2" ry="2" />
<text  x="14.76" y="1103.5" ></text>
</g>
<g >
<title>kmp_flag_native&lt;unsigned long long,  (2,932,748 samples, 0.05%)</title><rect x="31.1" y="37" width="0.5" height="15.0" fill="rgb(253,225,53)" rx="2" ry="2" />
<text  x="34.08" y="47.5" ></text>
</g>
<g >
<title>[unknown] (103,462,683 samples, 1.70%)</title><rect x="11.8" y="181" width="20.0" height="15.0" fill="rgb(210,24,5)" rx="2" ry="2" />
<text  x="14.76" y="191.5" ></text>
</g>
<g >
<title>[unknown] (103,462,683 samples, 1.70%)</title><rect x="11.8" y="437" width="20.0" height="15.0" fill="rgb(210,24,5)" rx="2" ry="2" />
<text  x="14.76" y="447.5" ></text>
</g>
<g >
<title>[unknown] (103,462,683 samples, 1.70%)</title><rect x="11.8" y="325" width="20.0" height="15.0" fill="rgb(210,24,5)" rx="2" ry="2" />
<text  x="14.76" y="335.5" ></text>
</g>
<g >
<title>mkl_lapack_dgetf2 (8,999,168 samples, 0.15%)</title><rect x="55.3" y="2037" width="1.8" height="15.0" fill="rgb(242,174,41)" rx="2" ry="2" />
<text  x="58.34" y="2047.5" ></text>
</g>
<g >
<title>[unknown] (103,462,683 samples, 1.70%)</title><rect x="11.8" y="1957" width="20.0" height="15.0" fill="rgb(210,24,5)" rx="2" ry="2" />
<text  x="14.76" y="1967.5" ></text>
</g>
<g >
<title>mkl_blas_avx512_xdswap (761,254 samples, 0.01%)</title><rect x="241.5" y="2053" width="0.2" height="15.0" fill="rgb(250,208,49)" rx="2" ry="2" />
<text  x="244.52" y="2063.5" ></text>
</g>
<g >
<title>mkl_blas_avx512_dgemm_kernel_0 (79,235,090 samples, 1.30%)</title><rect x="32.5" y="2037" width="15.3" height="15.0" fill="rgb(232,128,30)" rx="2" ry="2" />
<text  x="35.50" y="2047.5" ></text>
</g>
<g >
<title>[unknown] (103,462,683 samples, 1.70%)</title><rect x="11.8" y="1573" width="20.0" height="15.0" fill="rgb(210,24,5)" rx="2" ry="2" />
<text  x="14.76" y="1583.5" ></text>
</g>
<g >
<title>[unknown] (103,462,683 samples, 1.70%)</title><rect x="11.8" y="1205" width="20.0" height="15.0" fill="rgb(210,24,5)" rx="2" ry="2" />
<text  x="14.76" y="1215.5" ></text>
</g>
<g >
<title>[unknown] (103,462,683 samples, 1.70%)</title><rect x="11.8" y="709" width="20.0" height="15.0" fill="rgb(210,24,5)" rx="2" ry="2" />
<text  x="14.76" y="719.5" ></text>
</g>
<g >
<title>mkl_trans_avx512_mkl_domatcopy2_t (29,549,520 samples, 0.48%)</title><rect x="57.2" y="2021" width="5.7" height="15.0" fill="rgb(220,69,16)" rx="2" ry="2" />
<text  x="60.20" y="2031.5" ></text>
</g>
<g >
<title>[unknown] (103,462,683 samples, 1.70%)</title><rect x="11.8" y="165" width="20.0" height="15.0" fill="rgb(210,24,5)" rx="2" ry="2" />
<text  x="14.76" y="175.5" ></text>
</g>
<g >
<title>dl_main (2,198,381 samples, 0.04%)</title><rect x="235.6" y="2037" width="0.4" height="15.0" fill="rgb(236,145,34)" rx="2" ry="2" />
<text  x="238.62" y="2047.5" ></text>
</g>
<g >
<title>[unknown] (103,462,683 samples, 1.70%)</title><rect x="11.8" y="1717" width="20.0" height="15.0" fill="rgb(210,24,5)" rx="2" ry="2" />
<text  x="14.76" y="1727.5" ></text>
</g>
<g >
<title>[unknown] (103,462,683 samples, 1.70%)</title><rect x="11.8" y="1013" width="20.0" height="15.0" fill="rgb(210,24,5)" rx="2" ry="2" />
<text  x="14.76" y="1023.5" ></text>
</g>
<g >
<title>_dl_relocate_object (650,251 samples, 0.01%)</title><rect x="236.1" y="2037" width="0.1" height="15.0" fill="rgb(231,120,28)" rx="2" ry="2" />
<text  x="239.05" y="2047.5" ></text>
</g>
<g >
<title>[unknown] (103,462,683 samples, 1.70%)</title><rect x="11.8" y="277" width="20.0" height="15.0" fill="rgb(210,24,5)" rx="2" ry="2" />
<text  x="14.76" y="287.5" ></text>
</g>
<g >
<title>[unknown] (103,462,683 samples, 1.70%)</title><rect x="11.8" y="693" width="20.0" height="15.0" fill="rgb(210,24,5)" rx="2" ry="2" />
<text  x="14.76" y="703.5" ></text>
</g>
<g >
<title>[unknown] (103,462,683 samples, 1.70%)</title><rect x="11.8" y="1189" width="20.0" height="15.0" fill="rgb(210,24,5)" rx="2" ry="2" />
<text  x="14.76" y="1199.5" ></text>
</g>
<g >
<title>[unknown] (103,462,683 samples, 1.70%)</title><rect x="11.8" y="1269" width="20.0" height="15.0" fill="rgb(210,24,5)" rx="2" ry="2" />
<text  x="14.76" y="1279.5" ></text>
</g>
<g >
<title>[unknown] (103,462,683 samples, 1.70%)</title><rect x="11.8" y="1525" width="20.0" height="15.0" fill="rgb(210,24,5)" rx="2" ry="2" />
<text  x="14.76" y="1535.5" ></text>
</g>
<g >
<title>[unknown] (103,462,683 samples, 1.70%)</title><rect x="11.8" y="453" width="20.0" height="15.0" fill="rgb(210,24,5)" rx="2" ry="2" />
<text  x="14.76" y="463.5" ></text>
</g>
<g >
<title>[unknown] (103,462,683 samples, 1.70%)</title><rect x="11.8" y="261" width="20.0" height="15.0" fill="rgb(210,24,5)" rx="2" ry="2" />
<text  x="14.76" y="271.5" ></text>
</g>
<g >
<title>[unknown] (103,462,683 samples, 1.70%)</title><rect x="11.8" y="1653" width="20.0" height="15.0" fill="rgb(210,24,5)" rx="2" ry="2" />
<text  x="14.76" y="1663.5" ></text>
</g>
<g >
<title>[unknown] (103,462,683 samples, 1.70%)</title><rect x="11.8" y="1765" width="20.0" height="15.0" fill="rgb(210,24,5)" rx="2" ry="2" />
<text  x="14.76" y="1775.5" ></text>
</g>
<g >
<title>[unknown] (103,462,683 samples, 1.70%)</title><rect x="11.8" y="1461" width="20.0" height="15.0" fill="rgb(210,24,5)" rx="2" ry="2" />
<text  x="14.76" y="1471.5" ></text>
</g>
<g >
<title>rml::internal::Backend::IndexedBins::reset (602,895 samples, 0.01%)</title><rect x="31.6" y="37" width="0.2" height="15.0" fill="rgb(227,102,24)" rx="2" ry="2" />
<text  x="34.65" y="47.5" ></text>
</g>
<g >
<title>[unknown] (103,462,683 samples, 1.70%)</title><rect x="11.8" y="1221" width="20.0" height="15.0" fill="rgb(210,24,5)" rx="2" ry="2" />
<text  x="14.76" y="1231.5" ></text>
</g>
<g >
<title>[unknown] (103,462,683 samples, 1.70%)</title><rect x="11.8" y="1029" width="20.0" height="15.0" fill="rgb(210,24,5)" rx="2" ry="2" />
<text  x="14.76" y="1039.5" ></text>
</g>
<g >
<title>[unknown] (103,462,683 samples, 1.70%)</title><rect x="11.8" y="213" width="20.0" height="15.0" fill="rgb(210,24,5)" rx="2" ry="2" />
<text  x="14.76" y="223.5" ></text>
</g>
<g >
<title>[unknown] (103,462,683 samples, 1.70%)</title><rect x="11.8" y="69" width="20.0" height="15.0" fill="rgb(210,24,5)" rx="2" ry="2" />
<text  x="14.76" y="79.5" ></text>
</g>
<g >
<title>__intel_avx_rep_memcpy (10,504,190 samples, 0.17%)</title><rect x="227.3" y="2053" width="2.1" height="15.0" fill="rgb(224,91,21)" rx="2" ry="2" />
<text  x="230.35" y="2063.5" ></text>
</g>
<g >
<title>[unknown] (103,462,683 samples, 1.70%)</title><rect x="11.8" y="1845" width="20.0" height="15.0" fill="rgb(210,24,5)" rx="2" ry="2" />
<text  x="14.76" y="1855.5" ></text>
</g>
<g >
<title>[unknown] (103,462,683 samples, 1.70%)</title><rect x="11.8" y="405" width="20.0" height="15.0" fill="rgb(210,24,5)" rx="2" ry="2" />
<text  x="14.76" y="415.5" ></text>
</g>
<g >
<title>LAPACKE_dge_nancheck (5,244,570 samples, 0.09%)</title><rect x="10.4" y="2053" width="1.0" height="15.0" fill="rgb(219,66,15)" rx="2" ry="2" />
<text  x="13.41" y="2063.5" ></text>
</g>
<g >
<title>[unknown] (1,961,701 samples, 0.03%)</title><rect x="62.5" y="2005" width="0.4" height="15.0" fill="rgb(210,24,5)" rx="2" ry="2" />
<text  x="65.54" y="2015.5" ></text>
</g>
<g >
<title>mkl_blas_avx512_dtrsm_kernel_lu_0 (15,388,556 samples, 0.25%)</title><rect x="52.1" y="2037" width="3.0" height="15.0" fill="rgb(209,18,4)" rx="2" ry="2" />
<text  x="55.09" y="2047.5" ></text>
</g>
<g >
<title>[unknown] (103,462,683 samples, 1.70%)</title><rect x="11.8" y="85" width="20.0" height="15.0" fill="rgb(210,24,5)" rx="2" ry="2" />
<text  x="14.76" y="95.5" ></text>
</g>
<g >
<title>[unknown] (103,462,683 samples, 1.70%)</title><rect x="11.8" y="1893" width="20.0" height="15.0" fill="rgb(210,24,5)" rx="2" ry="2" />
<text  x="14.76" y="1903.5" ></text>
</g>
<g >
<title>[unknown] (103,462,683 samples, 1.70%)</title><rect x="11.8" y="469" width="20.0" height="15.0" fill="rgb(210,24,5)" rx="2" ry="2" />
<text  x="14.76" y="479.5" ></text>
</g>
<g >
<title>[unknown] (103,462,683 samples, 1.70%)</title><rect x="11.8" y="501" width="20.0" height="15.0" fill="rgb(210,24,5)" rx="2" ry="2" />
<text  x="14.76" y="511.5" ></text>
</g>
<g >
<title>[unknown] (2,352,247 samples, 0.04%)</title><rect x="240.8" y="2037" width="0.4" height="15.0" fill="rgb(210,24,5)" rx="2" ry="2" />
<text  x="243.75" y="2047.5" ></text>
</g>
<g >
<title>[unknown] (103,462,683 samples, 1.70%)</title><rect x="11.8" y="1301" width="20.0" height="15.0" fill="rgb(210,24,5)" rx="2" ry="2" />
<text  x="14.76" y="1311.5" ></text>
</g>
<g >
<title>KMPNativeAffinity::Mask::~Mask (715,783 samples, 0.01%)</title><rect x="11.4" y="2037" width="0.2" height="15.0" fill="rgb(227,102,24)" rx="2" ry="2" />
<text  x="14.43" y="2047.5" ></text>
</g>
<g >
<title>[unknown] (103,462,683 samples, 1.70%)</title><rect x="11.8" y="1445" width="20.0" height="15.0" fill="rgb(210,24,5)" rx="2" ry="2" />
<text  x="14.76" y="1455.5" ></text>
</g>
<g >
<title>rand@plt (1,731,039 samples, 0.03%)</title><rect x="1189.6" y="2053" width="0.3" height="15.0" fill="rgb(209,22,5)" rx="2" ry="2" />
<text  x="1192.60" y="2063.5" ></text>
</g>
<g >
<title>[unknown] (103,462,683 samples, 1.70%)</title><rect x="11.8" y="1557" width="20.0" height="15.0" fill="rgb(210,24,5)" rx="2" ry="2" />
<text  x="14.76" y="1567.5" ></text>
</g>
<g >
<title>[unknown] (103,462,683 samples, 1.70%)</title><rect x="11.8" y="1157" width="20.0" height="15.0" fill="rgb(210,24,5)" rx="2" ry="2" />
<text  x="14.76" y="1167.5" ></text>
</g>
<g >
<title>[unknown] (103,462,683 samples, 1.70%)</title><rect x="11.8" y="1141" width="20.0" height="15.0" fill="rgb(210,24,5)" rx="2" ry="2" />
<text  x="14.76" y="1151.5" ></text>
</g>
<g >
<title>[unknown] (103,462,683 samples, 1.70%)</title><rect x="11.8" y="533" width="20.0" height="15.0" fill="rgb(210,24,5)" rx="2" ry="2" />
<text  x="14.76" y="543.5" ></text>
</g>
<g >
<title>mkl_blas_avx512_dfind_idx (759,737 samples, 0.01%)</title><rect x="55.3" y="2021" width="0.2" height="15.0" fill="rgb(230,116,27)" rx="2" ry="2" />
<text  x="58.34" y="2031.5" ></text>
</g>
<g >
<title>[unknown] (103,462,683 samples, 1.70%)</title><rect x="11.8" y="1621" width="20.0" height="15.0" fill="rgb(210,24,5)" rx="2" ry="2" />
<text  x="14.76" y="1631.5" ></text>
</g>
<g >
<title>[unknown] (103,462,683 samples, 1.70%)</title><rect x="11.8" y="117" width="20.0" height="15.0" fill="rgb(210,24,5)" rx="2" ry="2" />
<text  x="14.76" y="127.5" ></text>
</g>
<g >
<title>[unknown] (103,462,683 samples, 1.70%)</title><rect x="11.8" y="1733" width="20.0" height="15.0" fill="rgb(210,24,5)" rx="2" ry="2" />
<text  x="14.76" y="1743.5" ></text>
</g>
<g >
<title>[unknown] (103,462,683 samples, 1.70%)</title><rect x="11.8" y="1317" width="20.0" height="15.0" fill="rgb(210,24,5)" rx="2" ry="2" />
<text  x="14.76" y="1327.5" ></text>
</g>
<g >
<title>[unknown] (103,462,683 samples, 1.70%)</title><rect x="11.8" y="517" width="20.0" height="15.0" fill="rgb(210,24,5)" rx="2" ry="2" />
<text  x="14.76" y="527.5" ></text>
</g>
<g >
<title>[unknown] (103,462,683 samples, 1.70%)</title><rect x="11.8" y="2021" width="20.0" height="15.0" fill="rgb(210,24,5)" rx="2" ry="2" />
<text  x="14.76" y="2031.5" ></text>
</g>
<g >
<title>[unknown] (103,462,683 samples, 1.70%)</title><rect x="11.8" y="1797" width="20.0" height="15.0" fill="rgb(210,24,5)" rx="2" ry="2" />
<text  x="14.76" y="1807.5" ></text>
</g>
<g >
<title>[unknown] (103,462,683 samples, 1.70%)</title><rect x="11.8" y="645" width="20.0" height="15.0" fill="rgb(210,24,5)" rx="2" ry="2" />
<text  x="14.76" y="655.5" ></text>
</g>
<g >
<title>do_lookup_x (4,981,946 samples, 0.08%)</title><rect x="236.2" y="2053" width="0.9" height="15.0" fill="rgb(245,187,44)" rx="2" ry="2" />
<text  x="239.18" y="2063.5" ></text>
</g>
<g >
<title>mkl_lapack_xdlaswp (11,195,448 samples, 0.18%)</title><rect x="241.8" y="2053" width="2.2" height="15.0" fill="rgb(207,11,2)" rx="2" ry="2" />
<text  x="244.82" y="2063.5" ></text>
</g>
<g >
<title>[unknown] (103,462,683 samples, 1.70%)</title><rect x="11.8" y="1285" width="20.0" height="15.0" fill="rgb(210,24,5)" rx="2" ry="2" />
<text  x="14.76" y="1295.5" ></text>
</g>
<g >
<title>[unknown] (103,462,683 samples, 1.70%)</title><rect x="11.8" y="1941" width="20.0" height="15.0" fill="rgb(210,24,5)" rx="2" ry="2" />
<text  x="14.76" y="1951.5" ></text>
</g>
<g >
<title>[unknown] (103,462,683 samples, 1.70%)</title><rect x="11.8" y="677" width="20.0" height="15.0" fill="rgb(210,24,5)" rx="2" ry="2" />
<text  x="14.76" y="687.5" ></text>
</g>
<g >
<title>[unknown] (103,462,683 samples, 1.70%)</title><rect x="11.8" y="341" width="20.0" height="15.0" fill="rgb(210,24,5)" rx="2" ry="2" />
<text  x="14.76" y="351.5" ></text>
</g>
<g >
<title>_dl_addr (4,093,255 samples, 0.07%)</title><rect x="234.8" y="2053" width="0.8" height="15.0" fill="rgb(237,149,35)" rx="2" ry="2" />
<text  x="237.79" y="2063.5" ></text>
</g>
<g >
<title>__kmp_yield (748,621 samples, 0.01%)</title><rect x="30.9" y="37" width="0.2" height="15.0" fill="rgb(247,195,46)" rx="2" ry="2" />
<text  x="33.93" y="47.5" ></text>
</g>
<g >
<title>my_dgesv (3,172,533 samples, 0.05%)</title><rect x="244.0" y="2053" width="0.7" height="15.0" fill="rgb(245,184,44)" rx="2" ry="2" />
<text  x="247.05" y="2063.5" ></text>
</g>
<g >
<title>my_dgesv.extracted (4,881,565,816 samples, 79.99%)</title><rect x="244.7" y="2053" width="943.9" height="15.0" fill="rgb(220,71,17)" rx="2" ry="2" />
<text  x="247.66" y="2063.5" >my_dgesv.extracted</text>
</g>
<g >
<title>__random (16,796,831 samples, 0.28%)</title><rect x="229.6" y="2053" width="3.3" height="15.0" fill="rgb(245,185,44)" rx="2" ry="2" />
<text  x="232.64" y="2063.5" ></text>
</g>
<g >
<title>mkl_blas_avx512_dtrsm_kernel_ll_0 (22,077,381 samples, 0.36%)</title><rect x="47.8" y="2037" width="4.3" height="15.0" fill="rgb(217,56,13)" rx="2" ry="2" />
<text  x="50.82" y="2047.5" ></text>
</g>
<g >
<title>[unknown] (103,462,683 samples, 1.70%)</title><rect x="11.8" y="565" width="20.0" height="15.0" fill="rgb(210,24,5)" rx="2" ry="2" />
<text  x="14.76" y="575.5" ></text>
</g>
<g >
<title>_dl_lookup_symbol_x (978,457 samples, 0.02%)</title><rect x="11.6" y="2021" width="0.2" height="15.0" fill="rgb(211,28,6)" rx="2" ry="2" />
<text  x="14.57" y="2031.5" ></text>
</g>
<g >
<title>my_dgesv (848,805,777 samples, 13.91%)</title><rect x="62.9" y="2037" width="164.1" height="15.0" fill="rgb(245,184,44)" rx="2" ry="2" />
<text  x="65.92" y="2047.5" >my_dgesv</text>
</g>
<g >
<title>[unknown] (103,462,683 samples, 1.70%)</title><rect x="11.8" y="309" width="20.0" height="15.0" fill="rgb(210,24,5)" rx="2" ry="2" />
<text  x="14.76" y="319.5" ></text>
</g>
<g >
<title>[unknown] (103,462,683 samples, 1.70%)</title><rect x="11.8" y="1413" width="20.0" height="15.0" fill="rgb(210,24,5)" rx="2" ry="2" />
<text  x="14.76" y="1423.5" ></text>
</g>
<g >
<title>[unknown] (103,462,683 samples, 1.70%)</title><rect x="11.8" y="773" width="20.0" height="15.0" fill="rgb(210,24,5)" rx="2" ry="2" />
<text  x="14.76" y="783.5" ></text>
</g>
<g >
<title>[unknown] (103,462,683 samples, 1.70%)</title><rect x="11.8" y="1909" width="20.0" height="15.0" fill="rgb(210,24,5)" rx="2" ry="2" />
<text  x="14.76" y="1919.5" ></text>
</g>
<g >
<title>[unknown] (103,462,683 samples, 1.70%)</title><rect x="11.8" y="885" width="20.0" height="15.0" fill="rgb(210,24,5)" rx="2" ry="2" />
<text  x="14.76" y="895.5" ></text>
</g>
<g >
<title>do_lookup_x (840,933 samples, 0.01%)</title><rect x="31.9" y="2037" width="0.2" height="15.0" fill="rgb(245,187,44)" rx="2" ry="2" />
<text  x="34.91" y="2047.5" ></text>
</g>
<g >
<title>[unknown] (103,462,683 samples, 1.70%)</title><rect x="11.8" y="1397" width="20.0" height="15.0" fill="rgb(210,24,5)" rx="2" ry="2" />
<text  x="14.76" y="1407.5" ></text>
</g>
<g >
<title>[unknown] (103,462,683 samples, 1.70%)</title><rect x="11.8" y="821" width="20.0" height="15.0" fill="rgb(210,24,5)" rx="2" ry="2" />
<text  x="14.76" y="831.5" ></text>
</g>
<g >
<title>[unknown] (103,462,683 samples, 1.70%)</title><rect x="11.8" y="1045" width="20.0" height="15.0" fill="rgb(210,24,5)" rx="2" ry="2" />
<text  x="14.76" y="1055.5" ></text>
</g>
<g >
<title>mkl_blas_avx512_dgemm_dcopy_down24_ea (1,600,627 samples, 0.03%)</title><rect x="241.2" y="2053" width="0.3" height="15.0" fill="rgb(232,124,29)" rx="2" ry="2" />
<text  x="244.21" y="2063.5" ></text>
</g>
<g >
<title>[unknown] (103,462,683 samples, 1.70%)</title><rect x="11.8" y="1861" width="20.0" height="15.0" fill="rgb(210,24,5)" rx="2" ry="2" />
<text  x="14.76" y="1871.5" ></text>
</g>
<g >
<title>[unknown] (103,462,683 samples, 1.70%)</title><rect x="11.8" y="373" width="20.0" height="15.0" fill="rgb(210,24,5)" rx="2" ry="2" />
<text  x="14.76" y="383.5" ></text>
</g>
<g >
<title>[unknown] (103,462,683 samples, 1.70%)</title><rect x="11.8" y="149" width="20.0" height="15.0" fill="rgb(210,24,5)" rx="2" ry="2" />
<text  x="14.76" y="159.5" ></text>
</g>
<g >
<title>[unknown] (103,462,683 samples, 1.70%)</title><rect x="11.8" y="549" width="20.0" height="15.0" fill="rgb(210,24,5)" rx="2" ry="2" />
<text  x="14.76" y="559.5" ></text>
</g>
<g >
<title>mkl_blas_avx512_xdgemm (1,414,042 samples, 0.02%)</title><rect x="55.1" y="2037" width="0.2" height="15.0" fill="rgb(236,142,34)" rx="2" ry="2" />
<text  x="58.06" y="2047.5" ></text>
</g>
<g >
<title>mkl_blas_avx512_dgemm_dcopy_down24_ea (2,172,705 samples, 0.04%)</title><rect x="32.1" y="2037" width="0.4" height="15.0" fill="rgb(232,124,29)" rx="2" ry="2" />
<text  x="35.08" y="2047.5" ></text>
</g>
<g >
<title>[unknown] (103,462,683 samples, 1.70%)</title><rect x="11.8" y="2037" width="20.0" height="15.0" fill="rgb(210,24,5)" rx="2" ry="2" />
<text  x="14.76" y="2047.5" ></text>
</g>
<g >
<title>_INTERNAL01e60a8a::__kmp_hyper_barrier_gather (3,774,867 samples, 0.06%)</title><rect x="11.8" y="37" width="0.7" height="15.0" fill="rgb(234,135,32)" rx="2" ry="2" />
<text  x="14.76" y="47.5" ></text>
</g>
<g >
<title>[unknown] (103,462,683 samples, 1.70%)</title><rect x="11.8" y="1829" width="20.0" height="15.0" fill="rgb(210,24,5)" rx="2" ry="2" />
<text  x="14.76" y="1839.5" ></text>
</g>
<g >
<title>dl_open_worker (650,251 samples, 0.01%)</title><rect x="236.1" y="2053" width="0.1" height="15.0" fill="rgb(236,145,34)" rx="2" ry="2" />
<text  x="239.05" y="2063.5" ></text>
</g>
<g >
<title>[unknown] (103,462,683 samples, 1.70%)</title><rect x="11.8" y="613" width="20.0" height="15.0" fill="rgb(210,24,5)" rx="2" ry="2" />
<text  x="14.76" y="623.5" ></text>
</g>
<g >
<title>all (6,102,391,334 samples, 100%)</title><rect x="10.0" y="2085" width="1180.0" height="15.0" fill="rgb(213,39,9)" rx="2" ry="2" />
<text  x="13.00" y="2095.5" ></text>
</g>
<g >
<title>_INTERNAL01e60a8a::__kmp_wait_template&lt;kmp_flag_64&lt;false, true&gt;, true, false, true&gt; (95,403,552 samples, 1.56%)</title><rect x="12.5" y="37" width="18.4" height="15.0" fill="rgb(228,108,25)" rx="2" ry="2" />
<text  x="15.49" y="47.5" ></text>
</g>
<g >
<title>[unknown] (103,462,683 samples, 1.70%)</title><rect x="11.8" y="933" width="20.0" height="15.0" fill="rgb(210,24,5)" rx="2" ry="2" />
<text  x="14.76" y="943.5" ></text>
</g>
<g >
<title>[unknown] (103,462,683 samples, 1.70%)</title><rect x="11.8" y="1061" width="20.0" height="15.0" fill="rgb(210,24,5)" rx="2" ry="2" />
<text  x="14.76" y="1071.5" ></text>
</g>
<g >
<title>mkl_blas_avx512_dgemm_free_bufs (784,702 samples, 0.01%)</title><rect x="241.7" y="2037" width="0.1" height="15.0" fill="rgb(242,174,41)" rx="2" ry="2" />
<text  x="244.67" y="2047.5" ></text>
</g>
<g >
<title>_dl_relocate_object (2,059,009 samples, 0.03%)</title><rect x="235.6" y="2021" width="0.4" height="15.0" fill="rgb(231,120,28)" rx="2" ry="2" />
<text  x="238.64" y="2031.5" ></text>
</g>
<g >
<title>[unknown] (103,462,683 samples, 1.70%)</title><rect x="11.8" y="1109" width="20.0" height="15.0" fill="rgb(210,24,5)" rx="2" ry="2" />
<text  x="14.76" y="1119.5" ></text>
</g>
<g >
<title>[unknown] (103,462,683 samples, 1.70%)</title><rect x="11.8" y="229" width="20.0" height="15.0" fill="rgb(210,24,5)" rx="2" ry="2" />
<text  x="14.76" y="239.5" ></text>
</g>
<g >
<title>[unknown] (103,462,683 samples, 1.70%)</title><rect x="11.8" y="1813" width="20.0" height="15.0" fill="rgb(210,24,5)" rx="2" ry="2" />
<text  x="14.76" y="1823.5" ></text>
</g>
<g >
<title>[unknown] (103,462,683 samples, 1.70%)</title><rect x="11.8" y="997" width="20.0" height="15.0" fill="rgb(210,24,5)" rx="2" ry="2" />
<text  x="14.76" y="1007.5" ></text>
</g>
<g >
<title>__random_r (9,858,321 samples, 0.16%)</title><rect x="232.9" y="2053" width="1.9" height="15.0" fill="rgb(245,185,44)" rx="2" ry="2" />
<text  x="235.89" y="2063.5" ></text>
</g>
<g >
<title>[unknown] (103,462,683 samples, 1.70%)</title><rect x="11.8" y="837" width="20.0" height="15.0" fill="rgb(210,24,5)" rx="2" ry="2" />
<text  x="14.76" y="847.5" ></text>
</g>
<g >
<title>[unknown] (103,462,683 samples, 1.70%)</title><rect x="11.8" y="133" width="20.0" height="15.0" fill="rgb(210,24,5)" rx="2" ry="2" />
<text  x="14.76" y="143.5" ></text>
</g>
<g >
<title>[unknown] (103,462,683 samples, 1.70%)</title><rect x="11.8" y="1493" width="20.0" height="15.0" fill="rgb(210,24,5)" rx="2" ry="2" />
<text  x="14.76" y="1503.5" ></text>
</g>
<g >
<title>[unknown] (103,462,683 samples, 1.70%)</title><rect x="11.8" y="1477" width="20.0" height="15.0" fill="rgb(210,24,5)" rx="2" ry="2" />
<text  x="14.76" y="1487.5" ></text>
</g>
<g >
<title>mkl_lapack_xdgetrf@plt (660,991 samples, 0.01%)</title><rect x="57.1" y="2037" width="0.1" height="15.0" fill="rgb(220,70,16)" rx="2" ry="2" />
<text  x="60.08" y="2047.5" ></text>
</g>
<g >
<title>kmp_flag_native&lt;unsigned long long,  (723,912 samples, 0.01%)</title><rect x="237.1" y="2053" width="0.2" height="15.0" fill="rgb(253,225,53)" rx="2" ry="2" />
<text  x="240.14" y="2063.5" ></text>
</g>
<g >
<title>[unknown] (103,462,683 samples, 1.70%)</title><rect x="11.8" y="2005" width="20.0" height="15.0" fill="rgb(210,24,5)" rx="2" ry="2" />
<text  x="14.76" y="2015.5" ></text>
</g>
<g >
<title>[unknown] (103,462,683 samples, 1.70%)</title><rect x="11.8" y="1989" width="20.0" height="15.0" fill="rgb(210,24,5)" rx="2" ry="2" />
<text  x="14.76" y="1999.5" ></text>
</g>
<g >
<title>[unknown] (103,462,683 samples, 1.70%)</title><rect x="11.8" y="949" width="20.0" height="15.0" fill="rgb(210,24,5)" rx="2" ry="2" />
<text  x="14.76" y="959.5" ></text>
</g>
<g >
<title>mkl_blas_avx512_dgemm_dcopy_down24_ea (759,457 samples, 0.01%)</title><rect x="55.1" y="2021" width="0.1" height="15.0" fill="rgb(232,124,29)" rx="2" ry="2" />
<text  x="58.06" y="2031.5" ></text>
</g>
<g >
<title>[unknown] (103,462,683 samples, 1.70%)</title><rect x="11.8" y="1173" width="20.0" height="15.0" fill="rgb(210,24,5)" rx="2" ry="2" />
<text  x="14.76" y="1183.5" ></text>
</g>
<g >
<title>[unknown] (103,462,683 samples, 1.70%)</title><rect x="11.8" y="1749" width="20.0" height="15.0" fill="rgb(210,24,5)" rx="2" ry="2" />
<text  x="14.76" y="1759.5" ></text>
</g>
<g >
<title>[unknown] (103,462,683 samples, 1.70%)</title><rect x="11.8" y="725" width="20.0" height="15.0" fill="rgb(210,24,5)" rx="2" ry="2" />
<text  x="14.76" y="735.5" ></text>
</g>
<g >
<title>[unknown] (103,462,683 samples, 1.70%)</title><rect x="11.8" y="101" width="20.0" height="15.0" fill="rgb(210,24,5)" rx="2" ry="2" />
<text  x="14.76" y="111.5" ></text>
</g>
<g >
<title>[unknown] (103,462,683 samples, 1.70%)</title><rect x="11.8" y="629" width="20.0" height="15.0" fill="rgb(210,24,5)" rx="2" ry="2" />
<text  x="14.76" y="639.5" ></text>
</g>
<g >
<title>__kmpc_dispatch_next_4 (775,350 samples, 0.01%)</title><rect x="31.8" y="2037" width="0.1" height="15.0" fill="rgb(235,139,33)" rx="2" ry="2" />
<text  x="34.76" y="2047.5" ></text>
</g>
<g >
<title>[unknown] (103,462,683 samples, 1.70%)</title><rect x="11.8" y="1509" width="20.0" height="15.0" fill="rgb(210,24,5)" rx="2" ry="2" />
<text  x="14.76" y="1519.5" ></text>
</g>
<g >
<title>[unknown] (103,462,683 samples, 1.70%)</title><rect x="11.8" y="1349" width="20.0" height="15.0" fill="rgb(210,24,5)" rx="2" ry="2" />
<text  x="14.76" y="1359.5" ></text>
</g>
<g >
<title>[unknown] (103,462,683 samples, 1.70%)</title><rect x="11.8" y="1333" width="20.0" height="15.0" fill="rgb(210,24,5)" rx="2" ry="2" />
<text  x="14.76" y="1343.5" ></text>
</g>
<g >
<title>KMPNativeAffinity::deallocate_mask (554,017 samples, 0.01%)</title><rect x="10.3" y="2053" width="0.1" height="15.0" fill="rgb(222,82,19)" rx="2" ry="2" />
<text  x="13.31" y="2063.5" ></text>
</g>
<g >
<title>main (20,319,095 samples, 0.33%)</title><rect x="237.3" y="2053" width="3.9" height="15.0" fill="rgb(243,179,42)" rx="2" ry="2" />
<text  x="240.28" y="2063.5" ></text>
</g>
<g >
<title>[unknown] (103,462,683 samples, 1.70%)</title><rect x="11.8" y="1701" width="20.0" height="15.0" fill="rgb(210,24,5)" rx="2" ry="2" />
<text  x="14.76" y="1711.5" ></text>
</g>
<g >
<title>[unknown] (103,462,683 samples, 1.70%)</title><rect x="11.8" y="357" width="20.0" height="15.0" fill="rgb(210,24,5)" rx="2" ry="2" />
<text  x="14.76" y="367.5" ></text>
</g>
<g >
<title>[unknown] (103,462,683 samples, 1.70%)</title><rect x="11.8" y="757" width="20.0" height="15.0" fill="rgb(210,24,5)" rx="2" ry="2" />
<text  x="14.76" y="767.5" ></text>
</g>
<g >
<title>rand (5,186,818 samples, 0.08%)</title><rect x="1188.6" y="2053" width="1.0" height="15.0" fill="rgb(243,179,42)" rx="2" ry="2" />
<text  x="1191.60" y="2063.5" ></text>
</g>
<g >
<title>[unknown] (103,462,683 samples, 1.70%)</title><rect x="11.8" y="245" width="20.0" height="15.0" fill="rgb(210,24,5)" rx="2" ry="2" />
<text  x="14.76" y="255.5" ></text>
</g>
<g >
<title>__kmp_hardware_timestamp (633,782 samples, 0.01%)</title><rect x="229.4" y="2053" width="0.2" height="15.0" fill="rgb(244,180,43)" rx="2" ry="2" />
<text  x="232.45" y="2063.5" ></text>
</g>
<g >
<title>[unknown] (103,462,683 samples, 1.70%)</title><rect x="11.8" y="1877" width="20.0" height="15.0" fill="rgb(210,24,5)" rx="2" ry="2" />
<text  x="14.76" y="1887.5" ></text>
</g>
<g >
<title>[unknown] (103,462,683 samples, 1.70%)</title><rect x="11.8" y="869" width="20.0" height="15.0" fill="rgb(210,24,5)" rx="2" ry="2" />
<text  x="14.76" y="879.5" ></text>
</g>
<g >
<title>[unknown] (584,425 samples, 0.01%)</title><rect x="235.9" y="2005" width="0.1" height="15.0" fill="rgb(210,24,5)" rx="2" ry="2" />
<text  x="238.93" y="2015.5" ></text>
</g>
<g >
<title>[unknown] (103,462,683 samples, 1.70%)</title><rect x="11.8" y="1541" width="20.0" height="15.0" fill="rgb(210,24,5)" rx="2" ry="2" />
<text  x="14.76" y="1551.5" ></text>
</g>
<g >
<title>[unknown] (103,462,683 samples, 1.70%)</title><rect x="11.8" y="741" width="20.0" height="15.0" fill="rgb(210,24,5)" rx="2" ry="2" />
<text  x="14.76" y="751.5" ></text>
</g>
<g >
<title>[unknown] (103,462,683 samples, 1.70%)</title><rect x="11.8" y="661" width="20.0" height="15.0" fill="rgb(210,24,5)" rx="2" ry="2" />
<text  x="14.76" y="671.5" ></text>
</g>
<g >
<title>mkl_trans_avx512_mkl_domatcopy (29,549,520 samples, 0.48%)</title><rect x="57.2" y="2037" width="5.7" height="15.0" fill="rgb(206,5,1)" rx="2" ry="2" />
<text  x="60.20" y="2047.5" ></text>
</g>
<g >
<title>[unknown] (103,462,683 samples, 1.70%)</title><rect x="11.8" y="1605" width="20.0" height="15.0" fill="rgb(210,24,5)" rx="2" ry="2" />
<text  x="14.76" y="1615.5" ></text>
</g>
<g >
<title>[unknown] (103,462,683 samples, 1.70%)</title><rect x="11.8" y="1685" width="20.0" height="15.0" fill="rgb(210,24,5)" rx="2" ry="2" />
<text  x="14.76" y="1695.5" ></text>
</g>
<g >
<title>mkl_blas_avx512_dgemm_dcopy_right8_ea (654,585 samples, 0.01%)</title><rect x="55.2" y="2021" width="0.1" height="15.0" fill="rgb(220,70,16)" rx="2" ry="2" />
<text  x="58.21" y="2031.5" ></text>
</g>
<g >
<title>[unknown] (103,462,683 samples, 1.70%)</title><rect x="11.8" y="1125" width="20.0" height="15.0" fill="rgb(210,24,5)" rx="2" ry="2" />
<text  x="14.76" y="1135.5" ></text>
</g>
<g >
<title>[unknown] (103,462,683 samples, 1.70%)</title><rect x="11.8" y="421" width="20.0" height="15.0" fill="rgb(210,24,5)" rx="2" ry="2" />
<text  x="14.76" y="431.5" ></text>
</g>
<g >
<title>[libmkl_sequential.so.1] (978,457 samples, 0.02%)</title><rect x="11.6" y="2037" width="0.2" height="15.0" fill="rgb(242,171,41)" rx="2" ry="2" />
<text  x="14.57" y="2047.5" ></text>
</g>
<g >
<title>[unknown] (103,462,683 samples, 1.70%)</title><rect x="11.8" y="485" width="20.0" height="15.0" fill="rgb(210,24,5)" rx="2" ry="2" />
<text  x="14.76" y="495.5" ></text>
</g>
<g >
<title>[unknown] (103,462,683 samples, 1.70%)</title><rect x="11.8" y="853" width="20.0" height="15.0" fill="rgb(210,24,5)" rx="2" ry="2" />
<text  x="14.76" y="863.5" ></text>
</g>
<g >
<title>KMPNativeAffinity::Mask::set_system_affinity (1,117,177 samples, 0.02%)</title><rect x="10.1" y="2053" width="0.2" height="15.0" fill="rgb(211,29,7)" rx="2" ry="2" />
<text  x="13.08" y="2063.5" ></text>
</g>
<g >
<title>[unknown] (103,462,683 samples, 1.70%)</title><rect x="11.8" y="1077" width="20.0" height="15.0" fill="rgb(210,24,5)" rx="2" ry="2" />
<text  x="14.76" y="1087.5" ></text>
</g>
<g >
<title>[unknown] (103,462,683 samples, 1.70%)</title><rect x="11.8" y="1973" width="20.0" height="15.0" fill="rgb(210,24,5)" rx="2" ry="2" />
<text  x="14.76" y="1983.5" ></text>
</g>
</g>
</svg>
